<?xml version="1.0" encoding="UTF-8" standalone="no"?>
<!-- Created with Inkscape (http://www.inkscape.org/) -->

<svg
   width="700.81097"
   height="244"
   viewBox="0 0 197.67754 68.824999"
   version="1.1"
   id="svg1"
   xml:space="preserve"
   inkscape:version="1.3.2 (091e20e, 2023-11-25, custom)"
   sodipodi:docname="logo.svg"
   xmlns:inkscape="http://www.inkscape.org/namespaces/inkscape"
   xmlns:sodipodi="http://sodipodi.sourceforge.net/DTD/sodipodi-0.dtd"
   xmlns="http://www.w3.org/2000/svg"
   xmlns:svg="http://www.w3.org/2000/svg"><sodipodi:namedview
     id="namedview1"
     pagecolor="#ffffff"
     bordercolor="#000000"
     borderopacity="0.25"
     inkscape:showpageshadow="2"
     inkscape:pageopacity="0.0"
     inkscape:pagecheckerboard="true"
     inkscape:deskcolor="#d1d1d1"
     inkscape:document-units="mm"
     inkscape:zoom="1.3843855"
     inkscape:cx="335.16675"
     inkscape:cy="123.88168"
     inkscape:window-width="1920"
     inkscape:window-height="991"
     inkscape:window-x="367"
     inkscape:window-y="1341"
     inkscape:window-maximized="1"
     inkscape:current-layer="layer1" /><defs
     id="defs1">
	
	
	
	
	
	
	
	
	
	
	
	
	
	
	
	
	
	
</defs><g
     inkscape:label="Capa 1"
     inkscape:groupmode="layer"
     id="layer1"
     transform="translate(-2.2750185,-1.5105306)"><g
       id="g1"
       transform="matrix(0.26458333,0,0,0.26458333,1.7910526,2.0563661)"
       style="fill:#f78c6b;fill-opacity:1">
		<path
   class="st8"
   d="M 248,128 H 128 v 120 h 105 c 8.284,0 15,-6.716 15,-15 z"
   id="path1"
   style="fill:#f78c6b;fill-opacity:1" />
	</g><g
       id="g2"
       transform="matrix(0.26458333,0,0,0.26458333,1.7910526,2.0563661)"
       style="fill:#ef476f;fill-opacity:1">
		<path
   class="st2"
   d="M 128,128 H 8 v 105 c 0,8.284 6.716,15 15,15 h 105 z"
   id="path2"
   style="fill:#ef476f;fill-opacity:1" />
	</g><g
       id="g3"
       transform="matrix(0.26458333,0,0,0.26458333,1.7910526,2.0563661)"
       style="fill:#ffd166;fill-opacity:1">
		<path
   class="st6"
   d="M 233,8 H 128 V 128 H 248 V 23 C 248,14.716 241.284,8 233,8 Z"
   id="path3"
   style="fill:#ffd166;fill-opacity:1" />
	</g><g
       id="g4"
       transform="matrix(0.26458333,0,0,0.26458333,1.7910526,2.0563661)"
       style="fill:#06d6a0;fill-opacity:1">
		<path
   class="st3"
   d="M 128,8 H 23 C 14.716,8 8,14.716 8,23 v 105 h 120 z"
   id="path4"
   style="fill:#06d6a0;fill-opacity:1" />
	</g><g
       id="g5"
       transform="matrix(0.26458333,0,0,0.26458333,1.7910526,2.0563661)">
		<path
   class="st4"
   d="M 233,250 H 128 c -1.104,0 -2,-0.896 -2,-2 V 128 c 0,-1.104 0.896,-2 2,-2 h 120 c 1.104,0 2,0.896 2,2 v 105 c 0,9.374 -7.626,17 -17,17 z m -103,-4 h 103 c 7.168,0 13,-5.832 13,-13 V 130 H 130 Z"
   id="path5" />
	</g><g
       id="g6"
       transform="matrix(0.26458333,0,0,0.26458333,1.7910526,2.0563661)"
       style="fill:#073b4c;fill-opacity:1">
		<path
   class="st4"
   d="M 128,250 H 23 C 13.626,250 6,242.374 6,233 V 128 c 0,-1.104 0.896,-2 2,-2 h 120 c 1.104,0 2,0.896 2,2 v 120 c 0,1.104 -0.896,2 -2,2 z M 10,130 v 103 c 0,7.168 5.832,13 13,13 H 126 V 130 Z"
   id="path6"
   style="fill:#073b4c;fill-opacity:1" />
	</g><g
       id="g7"
       transform="matrix(0.26458333,0,0,0.26458333,1.7910526,2.0563661)"
       style="fill:#073b4c;fill-opacity:1">
		<path
   class="st4"
   d="M 248,130 H 128 c -1.104,0 -2,-0.896 -2,-2 V 8 c 0,-1.104 0.896,-2 2,-2 h 105 c 9.374,0 17,7.626 17,17 v 105 c 0,1.104 -0.896,2 -2,2 z M 130,126 H 246 V 23 c 0,-7.168 -5.832,-13 -13,-13 H 130 Z"
   id="path7"
   style="fill:#073b4c;fill-opacity:1" />
	</g><g
       id="g8"
       transform="matrix(0.26458333,0,0,0.26458333,1.7910526,2.0563661)"
       style="fill:#073b4c;fill-opacity:1">
		<path
   class="st4"
   d="M 128,130 H 8 c -1.104,0 -2,-0.896 -2,-2 V 23 C 6,13.626 13.626,6 23,6 h 105 c 1.104,0 2,0.896 2,2 v 120 c 0,1.104 -0.896,2 -2,2 z M 10,126 H 126 V 10 H 23 c -7.168,0 -13,5.832 -13,13 z"
   id="path8"
   style="fill:#073b4c;fill-opacity:1" />
	</g><g
       id="g9"
       transform="matrix(0.26458333,0,0,0.26458333,1.7910526,2.0563661)"
       style="fill:#073b4c;fill-opacity:1">
		<path
   class="st0"
   d="m 63.946,176.586 c -8.505,6.529 -11.095,7.036 -13.021,5.049 -1.528,-1.574 -1.194,-3.883 -0.016,-4.768 2.112,-1.585 6.102,-2.667 9.582,-5.69 5.448,-4.735 5.023,-7.972 8.3,-7.972 2.532,0 3.658,2.264 3.658,4.815 v 35.796 c 0,7.701 -5.557,6.985 -7.347,5.002 -1.558,-1.726 -1.156,-1.38 -1.156,-32.232 z"
   id="path9"
   style="fill:#073b4c;fill-opacity:1" />
	</g><g
       id="g10"
       transform="matrix(0.26458333,0,0,0.26458333,1.7910526,2.0563661)"
       style="fill:#073b4c;fill-opacity:1">
		<path
   class="st0"
   d="m 184.141,202.33 c 17.379,0 18.351,-0.317 20.039,1 1.697,1.324 1.656,3.86 0.266,5.315 -1.364,1.428 -1.141,1.063 -26.088,1.063 -1.563,0 -2.782,-0.432 -3.658,-1.297 -4.669,-4.61 4.153,-11.999 8.878,-16.35 5.155,-4.745 12.537,-8.543 12.537,-15.209 0,-7.125 -9.456,-9.618 -13.568,-3.314 -1.279,1.914 -1.401,6.909 -5.408,6.909 -2.807,0 -5.007,-2.665 -2.658,-8.347 5.298,-12.816 30.2,-11.311 30.2,4.564 0,11.991 -14.674,16.743 -20.54,25.666 z"
   id="path10"
   style="fill:#073b4c;fill-opacity:1" />
	</g><g
       id="g11"
       transform="matrix(0.26458333,0,0,0.26458333,1.7910526,2.0563661)"
       style="fill:#073b4c;fill-opacity:1">
		<path
   class="st0"
   d="m 192.785,58.335 c 3.725,-3.025 2.54,-10.723 -4.048,-10.723 -4.83,0 -5.713,2.383 -7.628,6.784 -0.621,1.302 -3.432,2.204 -5.299,0.391 -4.425,-4.29 5.401,-16.93 19.336,-12.318 4.838,1.603 8.066,5.397 8.066,10.457 0,3.291 -1.011,6.162 -5.252,9.723 13.96,7.518 7.085,25.823 -9.035,25.823 -14.177,0 -19.975,-16.475 -11.41,-16.475 4.729,0 2.863,10.317 11.473,10.317 7.396,0 10.238,-9.332 5.877,-13.865 -4.68,-4.862 -12.786,1.315 -12.786,-5.08 0,-2.348 1.988,-3.345 4.471,-3.345 1.611,-10e-4 3.926,0.186 6.235,-1.689 z"
   id="path11"
   style="fill:#073b4c;fill-opacity:1" />
	</g><g
       id="g12"
       transform="matrix(0.26458333,0,0,0.26458333,1.7910526,2.0563661)"
       style="stroke-width:0.99927064;stroke-dasharray:none;fill:#073b4c;fill-opacity:1">
		<path
   class="st0"
   d="m 68.637,77.861 c -16.843,0 -18.228,0.396 -20.149,-1.344 -0.99,-0.896 -1.485,-2.115 -1.485,-3.658 0,-1.535 1.033,-2.803 2.939,-5.315 19.406,-25.96 19.011,-26.323 21.759,-26.323 3.167,0 4.752,1.813 4.752,5.44 v 24.197 c 3.586,0 6.659,-0.055 6.659,3.533 0,3.81 -3.923,3.47 -6.659,3.47 0,4.898 0.951,10.567 -3.908,10.567 -4.779,0 -3.908,-5.538 -3.908,-10.567 z M 55.194,70.859 H 68.637 V 52.695 Z"
   id="path12"
   style="stroke-width:0.99927064;stroke-dasharray:none;fill:#073b4c;fill-opacity:1" />
	</g><g
       id="g13"
       transform="matrix(0.26458333,0,0,0.26458333,1.7910526,2.0563661)"
       style="fill:#118ab2;fill-opacity:1">
		<path
   class="st5"
   d="m 128,164.507 h -19.625 c -1.657,0 -3,1.343 -3,3 v 29.355 c 0,1.657 1.343,3 3,3 H 128 v 8.803 c 0,0.92 1.137,1.352 1.748,0.664 l 21.745,-24.488 c 1.345,-1.515 1.345,-3.797 0,-5.312 L 129.748,155.041 C 129.137,154.353 128,154.785 128,155.705 Z"
   id="path13"
   style="fill:#118ab2;fill-opacity:1" />
	</g><g
       id="g14"
       transform="matrix(0.26458333,0,0,0.26458333,1.7910526,2.0563661)"
       style="fill:#118ab2;fill-opacity:1">
		<path
   class="st5"
   d="m 171.747,128 v 19.625 c 0,1.657 1.343,3 3,3 h 29.355 c 1.657,0 3,-1.343 3,-3 V 128 h 8.803 c 0.92,0 1.352,-1.137 0.664,-1.748 l -24.488,-21.745 c -1.515,-1.345 -3.797,-1.345 -5.312,0 l -24.488,21.745 c -0.688,0.611 -0.256,1.748 0.664,1.748 z"
   id="path14"
   style="fill:#118ab2;fill-opacity:1" />
	</g><g
       id="g15"
       transform="matrix(0.26458333,0,0,0.26458333,1.7910526,2.0563661)"
       style="fill:#118ab2;fill-opacity:1">
		<path
   class="st5"
   d="m 128,90.04 h 19.625 c 1.657,0 3,-1.343 3,-3 V 57.685 c 0,-1.657 -1.343,-3 -3,-3 H 128 v -8.803 c 0,-0.92 -1.137,-1.352 -1.748,-0.664 l -21.745,24.488 c -1.345,1.515 -1.345,3.797 0,5.312 l 21.745,24.488 c 0.611,0.688 1.748,0.256 1.748,-0.664 z"
   id="path15"
   style="fill:#118ab2;fill-opacity:1" />
	</g><g
       id="g16"
       transform="matrix(0.26458333,0,0,0.26458333,1.7910526,2.0563661)"
       style="fill:#073b4c;fill-opacity:1">
		<path
   class="st4"
   d="m 129.01,211.668 c -0.359,0 -0.724,-0.065 -1.076,-0.199 -1.175,-0.447 -1.934,-1.547 -1.934,-2.804 v -6.803 h -17.625 c -2.757,0 -5,-2.243 -5,-5 v -29.355 c 0,-2.757 2.243,-5 5,-5 H 126 v -6.803 c 0,-1.257 0.759,-2.357 1.934,-2.804 1.18,-0.447 2.475,-0.127 3.31,0.812 l 21.745,24.489 c 2.017,2.272 2.017,5.697 0.001,7.967 l -21.746,24.489 c -0.586,0.658 -1.397,1.011 -2.234,1.011 z m -20.635,-45.161 c -0.552,0 -1,0.449 -1,1 v 29.355 c 0,0.551 0.448,1 1,1 H 128 c 1.104,0 2,0.896 2,2 v 6.171 l 19.998,-22.521 c 0.672,-0.757 0.672,-1.898 -10e-4,-2.656 L 130,158.336 v 6.171 c 0,1.104 -0.896,2 -2,2 z"
   id="path16"
   style="fill:#073b4c;fill-opacity:1" />
	</g><g
       id="g17"
       transform="matrix(0.26458333,0,0,0.26458333,1.7910526,2.0563661)"
       style="fill:#073b4c;fill-opacity:1">
		<path
   class="st4"
   d="m 204.102,152.625 h -29.354 c -2.757,0 -5,-2.243 -5,-5 V 130 h -6.803 c -1.258,0 -2.359,-0.76 -2.806,-1.936 -0.445,-1.175 -0.126,-2.474 0.814,-3.308 l 24.487,-21.744 c 2.271,-2.018 5.696,-2.016 7.968,0 l 24.488,21.745 c 0.939,0.833 1.259,2.132 0.813,3.307 -0.446,1.176 -1.548,1.936 -2.806,1.936 H 209.1 v 17.625 c 0.002,2.757 -2.242,5 -4.998,5 z M 165.577,126 h 6.17 c 1.104,0 2,0.896 2,2 v 19.625 c 0,0.551 0.448,1 1,1 h 29.354 c 0.552,0 1,-0.449 1,-1 V 128 c 0,-1.104 0.896,-2 2,-2 h 6.17 l -22.52,-19.997 c -0.756,-0.673 -1.897,-0.673 -2.655,0 z"
   id="path17"
   style="fill:#073b4c;fill-opacity:1" />
	</g><g
       id="g18"
       transform="matrix(0.26458333,0,0,0.26458333,1.7910526,2.0563661)"
       style="fill:#073b4c;fill-opacity:1">
		<path
   class="st4"
   d="m 126.99,101.847 c -0.837,0 -1.648,-0.353 -2.232,-1.01 L 103.012,76.348 c -2.017,-2.271 -2.017,-5.697 -0.001,-7.968 l 21.746,-24.489 c 0.835,-0.94 2.134,-1.259 3.309,-0.813 1.176,0.447 1.935,1.548 1.935,2.805 v 6.803 h 17.625 c 2.757,0 5,2.243 5,5 v 29.355 c 0,2.757 -2.243,5 -5,5 H 130 v 6.803 c 0,1.257 -0.759,2.357 -1.934,2.804 -0.352,0.134 -0.716,0.199 -1.076,0.199 z M 126,48.515 106.002,71.036 c -0.672,0.757 -0.672,1.899 0.001,2.656 L 126,96.211 V 90.04 c 0,-1.104 0.896,-2 2,-2 h 19.625 c 0.552,0 1,-0.449 1,-1 V 57.686 c 0,-0.551 -0.448,-1 -1,-1 H 128 c -1.104,0 -2,-0.896 -2,-2 z"
   id="path18"
   style="fill:#073b4c;fill-opacity:1" />
	</g><text
       xml:space="preserve"
       style="font-style:normal;font-variant:normal;font-weight:normal;font-stretch:normal;font-size:14.1014px;font-family:'Gill Sans MT';-inkscape-font-specification:'Gill Sans MT, Normal';font-variant-ligatures:normal;font-variant-caps:normal;font-variant-numeric:normal;font-variant-east-asian:normal;fill:#06d6a0;stroke-width:0.440671;fill-opacity:1"
       x="73.529114"
       y="64.914383"
       id="text39"><tspan
         sodipodi:role="line"
         id="tspan39"
         style="font-style:normal;font-variant:normal;font-weight:normal;font-stretch:normal;font-size:14.1014px;font-family:'Gill Sans MT';-inkscape-font-specification:'Gill Sans MT, Normal';font-variant-ligatures:normal;font-variant-caps:normal;font-variant-numeric:normal;font-variant-east-asian:normal;fill:#06d6a0;stroke-width:0.440671;fill-opacity:1"
         x="73.529114"
         y="64.914383">you know your pixels</tspan></text><g
       id="g41"
       transform="translate(-28.326989)"
       style="fill:#06d6a0;fill-opacity:1"><text
         xml:space="preserve"
         style="font-style:normal;font-variant:normal;font-weight:bold;font-stretch:normal;font-size:30.6808px;font-family:'Gill Sans MT';-inkscape-font-specification:'Gill Sans MT, Bold';font-variant-ligatures:normal;font-variant-caps:normal;font-variant-numeric:normal;font-variant-east-asian:normal;fill:#06d6a0;stroke-width:0.479645;fill-opacity:1"
         x="99.309357"
         y="26.182411"
         id="text38"><tspan
           sodipodi:role="line"
           id="tspan38"
           style="font-style:normal;font-variant:normal;font-weight:bold;font-stretch:normal;font-size:30.6808px;font-family:'Gill Sans MT';-inkscape-font-specification:'Gill Sans MT, Bold';font-variant-ligatures:normal;font-variant-caps:normal;font-variant-numeric:normal;font-variant-east-asian:normal;fill:#06d6a0;stroke-width:0.479645;fill-opacity:1"
           x="99.309357"
           y="26.182411">Pixel</tspan><tspan
           sodipodi:role="line"
           style="font-style:normal;font-variant:normal;font-weight:bold;font-stretch:normal;font-size:30.6808px;font-family:'Gill Sans MT';-inkscape-font-specification:'Gill Sans MT, Bold';font-variant-ligatures:normal;font-variant-caps:normal;font-variant-numeric:normal;font-variant-east-asian:normal;fill:#06d6a0;stroke-width:0.479645;fill-opacity:1"
           x="99.309357"
           y="64.533409"
           id="tspan40" /></text><text
         xml:space="preserve"
         style="font-style:normal;font-variant:normal;font-weight:bold;font-stretch:normal;font-size:30.6808px;font-family:'Gill Sans MT';-inkscape-font-specification:'Gill Sans MT, Bold';font-variant-ligatures:normal;font-variant-caps:normal;font-variant-numeric:normal;font-variant-east-asian:normal;fill:#06d6a0;fill-opacity:1;stroke-width:0.511345"
         x="99.309357"
         y="50.040264"
         id="text41"><tspan
           sodipodi:role="line"
           id="tspan41"
           x="99.309357"
           y="50.040264"
           style="font-style:normal;font-variant:normal;font-weight:bold;font-stretch:normal;font-size:30.6808px;font-family:'Gill Sans MT';-inkscape-font-specification:'Gill Sans MT, Bold';font-variant-ligatures:normal;font-variant-caps:normal;font-variant-numeric:normal;font-variant-east-asian:normal;stroke-width:0.511345;fill:#06d6a0;fill-opacity:1">Positions</tspan></text></g></g><style
     type="text/css"
     id="style1">
	.st0{fill:#4671C6;}
	.st1{fill:#F9CFCF;}
	.st2{fill:#F9A7A7;}
	.st3{fill:#A4C9FF;}
	.st4{fill:#3762CC;}
	.st5{fill:#E0EBFC;}
	.st6{fill:#6BDDDD;}
	.st7{fill:#B9BEFC;}
	.st8{fill:#FFEA92;}
	.st9{fill:#EAA97D;}
	.st10{fill:#FFEA94;}
	.st11{fill:#FFE164;}
	.st12{fill:#FFDC85;}
	.st13{fill:#FFFFFF;}
	.st14{fill:#383838;}
</style></svg>
